<svg id="logo" xmlns="http://www.w3.org/2000/svg" viewBox="0 0 496.58 505.44"><defs><style>.cls-1,.cls-4{fill:#fff;}.cls-1,.cls-2{stroke:#231f20;stroke-miterlimit:10;}.cls-2{fill:none;}.cls-3{fill:#231f20;}</style></defs><title>brizaar-logo-t</title><polyline class="cls-1" points="22.02 275.64 341.11 399.31 341.47 377.35 22.02 252.91 22.02 275.64"/><line class="cls-2" x1="469.16" y1="295.2" x2="340.47" y2="376.35"/><path class="cls-3" d="M392.87,350.59v-1" transform="translate(-39.93 -17.51)"/><path class="cls-1" d="M509.09,312.71,379.84,394.86,76.7,275.52l.55-17,96.11-56.33c5.86,2.85,12.5-.81,12.5-.81l184.72,63.47,23.89,8.21,103.77,35.65" transform="translate(-39.93 -17.51)"/><polyline class="cls-1" points="332.72 149.29 326.87 371.23 339.91 377.35 351.27 368.74 349.12 165.33 332.64 149.29"/><polyline class="cls-2" points="133.84 149.53 133.43 184.69 133.84 149.53"/><path class="cls-1" d="M173.77,167l12.09,6.28v28.07a15.24,15.24,0,0,1-12.5.81" transform="translate(-39.93 -17.51)"/><path class="cls-4" d="M185.83,26.14a.38.38,0,0,0,.45-.31l.91-5.44c.14-.85.1-2-.74-2.22a1.74,1.74,0,0,0-.57,0l-9.46.79a.36.36,0,0,0-.4.34,46,46,0,0,0-1.71,12.24l7.32-6Z" transform="translate(-39.93 -17.51)"/><path class="cls-3" d="M186,26.62c1.37-.27,1.24-3.27,1.41-4.32.23-1.39,1-3.89-.73-4.59-1.48-.59-4.38.24-6,.38-1.16.1-4-.23-4.87.58s-1.1,3.88-1.32,5.13a49.48,49.48,0,0,0-.68,7.72.51.51,0,0,0,.86.36l5.8-4.72a8.46,8.46,0,0,1,1.22-1c.6-.31-.35,0,.36,0a32.48,32.48,0,0,1,3.78.51c.64.09.64-.91,0-1a17.53,17.53,0,0,0-3.93-.53c-.71.09-1,.38-1.57.88L174,31.17l.86.36c0-3.31.11-7.11,1.22-10.27.67-1.92,1.83-1.93,3.7-2.09l4.73-.39c1.42-.12,2.13.1,2.21,1.69a9.28,9.28,0,0,1-.3,1.8c-.07.41-.3,3.32-.67,3.39C185.07,25.78,185.33,26.75,186,26.62Z" transform="translate(-39.93 -17.51)"/><path class="cls-1" d="M513.43,104.32c-9.83,4-28.82,6.91-39.48,17.33-17.62,17.25-100.8,45.76-100.8,45.76l.38.61a139.94,139.94,0,0,0,15.52,14.81c5.35,4.46,12,10,19.5,13.63,18.92,9.2,38.81,4.48,53.26,1,10.51-2.5,20.17-4.91,29.29-12.94,4.62-4.07,5.69-7,13.66-19.41,9-14,31-64.56,31-64.56S519,102,513.43,104.32Zm-14.48,13.42a116.69,116.69,0,0,1-63.42,42.63ZM504.36,131c-10.89,12.59-24.94,22-39.12,30.74-6.75,4.16-13.66,8.24-21.25,10.53l73.14-58.56A185.77,185.77,0,0,1,504.36,131Z" transform="translate(-39.93 -17.51)"/><path class="cls-4" d="M515.23,82.29c-.44-2.86.65-5.89-.27-8.64a.64.64,0,0,0-.17-.3,4.27,4.27,0,0,0-1.12-.13,16.06,16.06,0,0,1-3.61-.45,4,4,0,0,0-1.57-.13c-.7.14-1.35.69-2,.55a29.93,29.93,0,0,0,.25,7.85Z" transform="translate(-39.93 -17.51)"/><path class="cls-3" d="M515.73,82.29c-.23-2,.14-4,.11-6,0-.95,0-2.77-.86-3.36s-3-.26-3.84-.41A12.84,12.84,0,0,0,509,72.1c-.91,0-1.67.57-2.57.59a.51.51,0,0,0-.5.5,33.19,33.19,0,0,0,.27,8,.48.48,0,0,0,.35.35l8.54,1.25c.63.09.9-.87.26-1l-5.92-.87c-.45-.07-2.21,0-2.53-.37a27.29,27.29,0,0,1-.09-3.08,32.79,32.79,0,0,1,.12-4.29l-.5.5a4.1,4.1,0,0,0,1.28-.24,5.43,5.43,0,0,1,2.86-.06c1,.19,2.2.1,3.19.34,1.42.34,1.08,2.63,1,3.86a28.17,28.17,0,0,0-.07,4.7C514.8,82.92,515.8,82.93,515.73,82.29Z" transform="translate(-39.93 -17.51)"/><path class="cls-4" d="M343.92,148.07C313.55,134.52,293.18,136,227,121.58c-42.12-9.17-84.69-15.06-87.78-15.63C120,102.4,88.07,89.53,82,86.17c-.83-.46-17.93-7.23-18.1-8.38-.2.1,21.43,46.06,28,51.47,31.48,26.07,47.32,13.56,93.45,43.78,15.28,10,30.23,20.85,54.07,26.84,7,1.77,14.69,2.51,24.62,2.32,21.12-.41,61.59-2.13,109.12-35.79C366.82,162.59,356.77,153.8,343.92,148.07ZM87.35,97.84l20.85,6.62a31.88,31.88,0,0,1,9.59,3l-9.59-3C100.73,103.1,92.84,102.84,87.35,97.84Zm37.33,24.09c5.36.85,10.8,1.39,16.14,2.28,13.93,2.32,27.26,7.06,40.43,12.4l96.15,25c-6.9.09-13.82.19-20.69-.41-26.47-2.29-50.67-14.49-75.46-24.55l-56.57-14.69a66.55,66.55,0,0,1-15-3.89ZM237.27,176c-15-4.27-29.08-11.37-43.14-18.19-10.46-5.07-21.08-10-32.13-13.58l-11.56-3.09A116.74,116.74,0,0,1,162,144.23l121.47,32.42C268.62,181.54,252.31,180.26,237.27,176Z" transform="translate(-39.93 -17.51)"/><path class="cls-2" d="M343.92,148.07C313.55,134.52,293.18,136,227,121.58c-42.12-9.17-84.69-15.06-87.78-15.63C120,102.4,88.07,89.53,82,86.17c-.83-.46-17.93-7.23-18.1-8.38-.2.1,21.43,46.06,28,51.47,31.48,26.07,47.32,13.56,93.45,43.78,15.28,10,30.23,20.85,54.07,26.84,7,1.77,14.69,2.51,24.62,2.32,21.12-.41,61.59-2.13,109.12-35.79C366.82,162.59,356.77,153.8,343.92,148.07ZM87.35,97.84l20.85,6.62a31.88,31.88,0,0,1,9.59,3l-9.59-3C100.73,103.1,92.84,102.84,87.35,97.84Zm37.33,24.09c5.36.85,10.8,1.39,16.14,2.28,13.93,2.32,27.26,7.06,40.43,12.4l96.15,25c-6.9.09-13.82.19-20.69-.41-26.47-2.29-50.67-14.49-75.46-24.55l-56.57-14.69a66.55,66.55,0,0,1-15-3.89ZM237.27,176c-15-4.27-29.08-11.37-43.14-18.19-10.46-5.07-21.08-10-32.13-13.58l-11.56-3.09A116.74,116.74,0,0,1,162,144.23l121.47,32.42C268.62,181.54,252.31,180.26,237.27,176Z" transform="translate(-39.93 -17.51)"/><path class="cls-1" d="M78.63,71.23l-.17-7.7s-11.37-8-13.17-4.36c-2.09,4.17-1.36,18.62-1.36,18.62Z" transform="translate(-39.93 -17.51)"/><path class="cls-4" d="M70.37,91.47,63.67,95c-5.89,3.12-9.81,5.19-16.25,6.9a3.71,3.71,0,0,1-1.91.15c-1.11-.3-1.7-1.48-2.15-2.54l-2.43-5.68A4.41,4.41,0,0,1,40.43,92c.06-1.52,1.58-2.5,2.92-3.22l20.59-11Z" transform="translate(-39.93 -17.51)"/><path class="cls-3" d="M70.12,91C63,94.78,56,99.15,48.15,101.2c-1.64.43-2.73.79-3.9-1a16.06,16.06,0,0,1-1.16-2.58c-1-2.42-3.37-5.74-.64-7.78a22.52,22.52,0,0,1,2.89-1.61l18.86-10L63.51,78l6.44,13.68c.27.58,1.14.07.86-.51L64.37,77.54a.51.51,0,0,0-.68-.18L45.83,86.87c-2.08,1.11-5.68,2.36-5.89,5a6.74,6.74,0,0,0,.9,3c.78,1.83,1.45,3.76,2.38,5.51,1.34,2.56,3.1,2.35,5.61,1.63,7.74-2.24,14.73-6.4,21.8-10.14C71.2,91.6,70.69,90.74,70.12,91Z" transform="translate(-39.93 -17.51)"/><polygon class="cls-1" points="339.85 399.26 338.21 504.5 465.66 420.12 468.04 317.27 339.85 399.26"/><polygon class="cls-1" points="468.6 296.2 339.91 377.35 339.91 399.45 468.11 317.46 468.6 296.2"/><polygon class="cls-1" points="457.93 302.28 463.47 148.94 474.65 129.7 469.16 295.2 457.93 302.28"/><path class="cls-2" d="M204.54-158.46" transform="translate(-39.93 -17.51)"/><path class="cls-1" d="M210.94,118.73c5.12,1,10.3,2.1,15.48,3.23,66.17,14.4,86.54,12.95,116.92,26.49,12.85,5.73,22.89,14.52,29.23,18.35l.61-.37c2.63.89,83.77-28.35,100.55-45.88,10.31-10.77,29.63-13.3,39.45-17.33,5.58-2.3,22.5-4.14,22.5-4.14s.67-14.31-21.41-17.1c-2.42-.31-5.11-.51-8.1-.6-9.24-.27-19.63-8.81-34.93-8.52-4.66.09-9.5,1.28-15.67,0-12.69-2.63-32.5.39-53.41-3.06-78.57-13-193.08-38.6-216.37-43.86l-4.22-1a56.82,56.82,0,0,1-7.86,6.72,94.85,94.85,0,0,1-28,13.88c-10,3.08-10.86,4.14-17.33,7.33-4.91,2.42-9.07,4.32-17.62,7.66C100.92,64.4,78.64,71,78.64,71L64,77.52l-.66.65c.17,1.15,17.26,7.92,18.1,8.38,6,3.36,38,16.23,57.19,19.77,2,.38,21.23,3.07,46.13,7.48Z" transform="translate(-39.93 -17.51)"/><polygon class="cls-1" points="21.61 252.72 23.32 77.32 30.03 73.78 36.89 87.44 36.77 258.01 21.61 252.72"/><polygon class="cls-1" points="38.56 280.36 21.93 273.85 21.93 370.97 36.82 377.2 38.56 280.36"/><path class="cls-1" d="M120.45,314.29l-1.76,97.59-4.85-2.2,1.75-97.29L83.34,299.77l-1.75,97L379,521.23l1.71-105Zm39.11,115-4.85-2.2,1.76-97.79,4.85,2.2Zm44.62,17.38-4.85-2.2,1.76-97.79,4.85,2.2ZM245,463.55l-4.85-2.2L242,363.56l4.85,2.2Zm42.74,17.38-4.85-2.2,1.76-97.79,4.85,2.2Zm40.39,16.44-4.85-2.2,1.76-97.79,4.85,2.2Z" transform="translate(-39.93 -17.51)"/></svg>